<?xml version="1.0" encoding="utf-8"?>
<!-- Generator: Adobe Illustrator 15.1.0, SVG Export Plug-In . SVG Version: 6.00 Build 0)  -->
<!DOCTYPE svg PUBLIC "-//W3C//DTD SVG 1.1//EN" "http://www.w3.org/Graphics/SVG/1.1/DTD/svg11.dtd">
<svg version="1.1" id="レイヤー_x5F_1_x5F_1" xmlns="http://www.w3.org/2000/svg" xmlns:xlink="http://www.w3.org/1999/xlink"
	 x="0px" y="0px" width="512px" height="512px" viewBox="0 0 512 512" enable-background="new 0 0 512 512" xml:space="preserve">
<path fill-rule="evenodd" clip-rule="evenodd" fill="#999999" d="M167.75,51.585c-14.31,3.71-47.16,13.5-46.84,32.18
	c0.36,20.93,40.01,28.69,55.62,32.17c50.64,11.31,109.38,11.16,160.04,0c15.97-3.52,55.92-11.45,55.62-33.15
	c-0.32-22.1-44.74-31.02-61.48-34.12C283.239,39.865,214.599,39.455,167.75,51.585z M228.25,17.455
	c50.89-3.02,197.34,5.19,216.63,64.36c4.62,14.19,1.95,30.18,1.95,44.85v259.91c0,12.55,0.99,35.42-2.95,46.79
	c-9.56,27.58-52.63,41.88-78.04,48.76c-70.72,19.12-153.63,20.73-223.46-2.92c-25.36-8.59-63.12-18.08-72.16-46.66
	c-4.21-10.67-3.96-33.17-3.96-45.68v-263.13c0-13.26-2.15-31.36,1.96-43.87C83.189,34.295,187.269,19.895,228.25,17.455z"/>
</svg>
