<svg version="1.1" xmlns="http://www.w3.org/2000/svg" x="0" y="0" width="512" height="512" viewBox="0 0 512 512" xml:space="preserve"><path fill-rule="evenodd" clip-rule="evenodd" fill="#999" d="M167.75 51.585c-14.31 3.71-47.16 13.5-46.84 32.18.36 20.93 40.01 28.69 55.62 32.17 50.64 11.31 109.38 11.16 160.04 0 15.97-3.52 55.92-11.45 55.62-33.15-.32-22.1-44.74-31.02-61.48-34.12-47.47-8.8-116.11-9.21-162.96 2.92zm60.5-34.13c50.89-3.02 197.34 5.19 216.63 64.36 4.62 14.19 1.95 30.18 1.95 44.85v259.91c0 12.55.99 35.42-2.95 46.79-9.56 27.58-52.63 41.88-78.04 48.76-70.72 19.12-153.63 20.73-223.46-2.92-25.36-8.59-63.12-18.08-72.16-46.66-4.21-10.67-3.96-33.17-3.96-45.68v-263.13c0-13.26-2.15-31.36 1.96-43.87 14.97-45.57 119.05-59.97 160.03-62.41z"/></svg>