<?xml version="1.0" encoding="utf-8"?>
<!-- Generator: Adobe Illustrator 15.0.2, SVG Export Plug-In . SVG Version: 6.00 Build 0)  -->
<!DOCTYPE svg PUBLIC "-//W3C//DTD SVG 1.1//EN" "http://www.w3.org/Graphics/SVG/1.1/DTD/svg11.dtd">
<svg version="1.1" id="レイヤー_1" xmlns="http://www.w3.org/2000/svg" xmlns:xlink="http://www.w3.org/1999/xlink" x="0px"
	 y="0px" width="181.417px" height="181.417px" viewBox="0 0 181.417 181.417" enable-background="new 0 0 181.417 181.417"
	 xml:space="preserve">
<path fill-rule="evenodd" clip-rule="evenodd" fill="#555" d="M18.208,34.499v0.21v22.15v15.06v0.35v18.59v20.06v0.35v35.65v0.35
	c0.53,14.08,32.79,25.44,72.5,25.44s71.97-11.36,72.5-25.44v-0.35v-35.65v-0.35v-20.06v-18.59v-0.35v-15.06v-22.15v-0.21
	c0-14.24-32.46-25.79-72.5-25.79S18.208,20.258,18.208,34.499z M21.008,41.628c8.7,10.78,36.61,18.67,69.7,18.67
	s61.01-7.89,69.7-18.67v22v6.81v0.32c-0.51,12.96-31.52,23.42-69.7,23.42c-38.13,0-69.12-10.44-69.7-23.38l0.01-0.04v-0.32v-6.8
	L21.008,41.628z M90.708,97.708c33.09,0,61-7.88,69.7-18.66v18.58v11.81v0.32c-0.51,12.96-31.52,23.42-69.7,23.42
	c-38.17,0-69.18-10.46-69.69-23.42v-0.32v-11.8l-0.01-18.59C29.718,89.818,57.628,97.708,90.708,97.708z M90.708,136.708
	c33.09,0,61-7.88,69.7-18.66v27.39v0.32c-0.51,12.96-31.52,23.42-69.7,23.42c-38.17,0-69.18-10.46-69.69-23.42v-0.32l-0.01-27.39
	C29.718,128.818,57.628,136.708,90.708,136.708z"/>
</svg>
