<?xml version="1.0" encoding="utf-8"?>
<!-- Generator: Adobe Illustrator 15.0.2, SVG Export Plug-In . SVG Version: 6.00 Build 0)  -->
<!DOCTYPE svg PUBLIC "-//W3C//DTD SVG 1.1//EN" "http://www.w3.org/Graphics/SVG/1.1/DTD/svg11.dtd">
<svg version="1.1" xmlns="http://www.w3.org/2000/svg" xmlns:xlink="http://www.w3.org/1999/xlink" x="0px"
	 y="0px" width="134px" height="133.994px" viewBox="0 0 134 133.994" enable-background="new 0 0 134 133.994"
	 xml:space="preserve">
<g>
	<path fill-rule="evenodd" clip-rule="evenodd" fill="#333" d="M98.7,88.177c-9.67,16.03-28.01,23.35-46.07,18.38
		c-18.05-4.96-30.06-20.64-30.16-39.36c-0.09-18.71,11.76-34.51,29.77-39.65c18-5.15,36.42,1.99,46.24,17.92l13.73-8.45
		c-13.68-22.19-39.33-32.14-64.41-24.97c-25.07,7.17-41.58,29.17-41.45,55.24c0.13,26.06,16.86,47.89,42,54.81
		c25.15,6.92,50.7-3.28,64.16-25.61L98.7,88.177z"/>
	<path fill-rule="evenodd" clip-rule="evenodd" fill="#777" d="M64.75,43.256v47.48v13.82c18.25-0.59,33.22-14.17,35.94-31.79
		h8.13v17.82h11.89v-17.82H134v-11.89h-13.29v-17.82h-11.89v17.82h-8.19c-2.86-17.45-17.75-30.86-35.88-31.44V43.256z M76.99,47.396
		c4.62,3.18,8.05,7.93,9.53,13.48h-9.53V47.396z M86.61,72.767c-1.43,5.7-4.91,10.59-9.62,13.83v-13.83H86.61z M61.96,90.717v-47.44
		v-13.82c-20.04,0.82-36.03,17.31-36.03,37.54s15.99,36.72,36.03,37.54V90.717z M49.72,86.347c-6.04-4.31-9.97-11.37-9.97-19.35
		s3.93-15.04,9.97-19.35V86.347z"/>
	<path fill-rule="evenodd" clip-rule="evenodd" fill="#DDDDDD" d="M98.39,108.237c0.95-0.81,1.49-1.83,1.62-3.06
		c0.13-1.24-0.19-2.31-0.97-3.23c-0.8-0.94-1.82-1.44-3.07-1.51c-1.26-0.08-2.37,0.3-3.35,1.13c-0.67,0.57-1.16,1.25-1.47,2.03
		l0.84,0.99c0.32-0.88,0.77-1.57,1.33-2.04c0.78-0.66,1.62-0.96,2.53-0.93c0.9,0.03,1.66,0.4,2.26,1.1
		c0.58,0.69,0.83,1.49,0.73,2.39c-0.1,0.9-0.52,1.66-1.25,2.28c-0.57,0.48-1.34,0.84-2.3,1.09l0.82,0.98
		C97.01,109.167,97.76,108.767,98.39,108.237z M91.17,105.787c-0.36-0.59-0.83-0.96-1.42-1.09c-0.58-0.15-1.16-0.05-1.75,0.31
		c-0.56,0.35-0.92,0.82-1.07,1.42c-0.14,0.58-0.04,1.15,0.3,1.72l1.65,2.69l0.94-0.57l-1.55-2.54c-0.23-0.36-0.32-0.71-0.27-1.02
		c0.06-0.32,0.23-0.58,0.54-0.76c0.69-0.43,1.27-0.25,1.75,0.54l1.56,2.54l0.95-0.58L91.17,105.787z M85.58,112.816
		c0.46-0.22,0.78-0.53,0.97-0.94c0.18-0.42,0.17-0.83-0.01-1.24c-0.16-0.34-0.4-0.57-0.71-0.69c-0.33-0.13-0.82-0.17-1.48-0.13
		c-0.67,0.04-1.06-0.07-1.19-0.35c-0.07-0.16-0.05-0.33,0.05-0.52c0.11-0.19,0.27-0.33,0.48-0.43c0.32-0.14,0.68-0.14,1.09,0
		l0.64-0.77c-0.75-0.44-1.47-0.5-2.17-0.17c-0.45,0.21-0.78,0.54-0.98,1.01c-0.19,0.46-0.19,0.9,0,1.31
		c0.16,0.35,0.42,0.61,0.77,0.75s0.84,0.19,1.47,0.16c0.64-0.04,1,0.05,1.1,0.27c0.15,0.32,0.01,0.57-0.41,0.76
		c-0.18,0.09-0.35,0.12-0.52,0.12c-0.15-0.01-0.36-0.03-0.6-0.07l-0.41,0.93C84.48,113.026,85.11,113.026,85.58,112.816z
		 M81.8,114.177l0.84-0.3l-0.35-0.98l-0.84,0.29l-1.44-4.09l-1.06,0.37l1.43,4.09l-1.06,0.37l0.34,0.98l1.06-0.37l0.52,1.47
		l1.07-0.37L81.8,114.177z M73.57,112.477c0.27-0.42,0.63-0.67,1.09-0.78c0.47-0.11,0.91-0.03,1.33,0.22
		c0.43,0.25,0.69,0.6,0.79,1.03c0.1,0.46,0.02,0.89-0.26,1.31c-0.26,0.4-0.63,0.66-1.11,0.77c-0.46,0.1-0.9,0.03-1.31-0.22
		c-0.41-0.25-0.66-0.6-0.77-1.04C73.24,113.327,73.32,112.887,73.57,112.477z M76.57,110.987c-0.69-0.42-1.42-0.54-2.2-0.37
		c-0.71,0.17-1.28,0.59-1.71,1.27c-0.42,0.68-0.55,1.39-0.39,2.12c0.17,0.73,0.59,1.3,1.27,1.73c0.69,0.41,1.41,0.54,2.15,0.37
		c0.74-0.17,1.32-0.59,1.75-1.27c0.44-0.69,0.58-1.38,0.42-2.09C77.69,111.997,77.26,111.407,76.57,110.987z M69.47,111.707
		l0.16,3.01c0.02,0.42-0.08,0.78-0.3,1.08c-0.22,0.29-0.51,0.45-0.85,0.47c-0.57,0.03-0.88-0.3-0.91-1l-0.18-3.45l-1.14,0.06
		l0.16,2.91c0.02,0.44-0.07,0.82-0.29,1.14c-0.22,0.31-0.49,0.47-0.83,0.49c-0.58,0.03-0.89-0.25-0.92-0.84l-0.19-3.6l-1.12,0.06
		l0.21,3.89c0.02,0.43,0.19,0.8,0.51,1.11c0.33,0.3,0.7,0.44,1.13,0.42c0.35-0.02,0.64-0.13,0.9-0.31c0.25-0.2,0.5-0.49,0.77-0.89
		c0.18,0.37,0.39,0.65,0.63,0.81c0.24,0.16,0.56,0.24,0.97,0.22c0.31-0.02,0.59-0.11,0.81-0.28c0.24-0.16,0.48-0.43,0.72-0.78
		l0.04,0.83l1.12-0.06l-0.28-5.35L69.47,111.707z M54.48,118.177c-0.82-0.19-1.46-0.42-1.91-0.69c-0.45-0.29-0.79-0.71-1.03-1.29
		c-0.24-0.58-0.29-1.18-0.16-1.79c0.11-0.5,0.32-0.93,0.63-1.29c0.32-0.36,0.68-0.63,1.1-0.8c0.44-0.16,0.86-0.24,1.29-0.22
		c0.43,0.02,1.05,0.12,1.87,0.3l0.06,0.01l-1.3,5.89L54.48,118.177z M57.67,111.566l-1.97-0.44c-1.48-0.32-2.7-0.17-3.66,0.47
		s-1.55,1.49-1.79,2.55c-0.23,1.05-0.06,2.06,0.51,3.05c0.58,0.98,1.64,1.64,3.19,1.98l1.95,0.44L57.67,111.566z M45.64,109.477
		c0.46-0.19,0.92-0.19,1.36-0.01c0.46,0.18,0.77,0.51,0.95,0.96c0.2,0.46,0.19,0.92,0,1.39c-0.18,0.42-0.49,0.73-0.95,0.92
		c-0.46,0.18-0.9,0.18-1.34,0c-0.45-0.18-0.77-0.5-0.97-0.95c-0.18-0.45-0.19-0.91,0-1.36
		C44.87,109.987,45.19,109.677,45.64,109.477z M44.22,111.967c0.05,0.42,0.2,0.8,0.47,1.16c0.26,0.35,0.59,0.6,0.97,0.76
		c0.63,0.25,1.28,0.22,1.95-0.11c0.68-0.33,1.15-0.83,1.43-1.52c0.3-0.73,0.32-1.44,0.07-2.14c-0.25-0.7-0.7-1.18-1.35-1.44
		c-0.75-0.31-1.53-0.19-2.34,0.35l0.4-0.98l-1.04-0.43l-2.01,4.93l1.04,0.42L44.22,111.967z M40.24,111.237l0.78,0.43l0.51-0.9
		l-0.77-0.43l2.1-3.76l-0.98-0.55l-2.11,3.75l-0.96-0.54l-0.51,0.89l0.97,0.55l-0.76,1.35l0.99,0.55L40.24,111.237z M35.79,103.707
		c0.5-0.07,0.95,0.03,1.34,0.31c0.41,0.3,0.65,0.7,0.71,1.19c0.08,0.5-0.04,0.95-0.34,1.36c-0.28,0.39-0.67,0.61-1.17,0.69
		c-0.49,0.06-0.93-0.05-1.32-0.33c-0.4-0.29-0.64-0.68-0.72-1.17c-0.07-0.49,0.03-0.94,0.33-1.34
		C34.91,104.017,35.3,103.787,35.79,103.707z M33.78,105.807c-0.05,0.43,0.01,0.84,0.18,1.26c0.17,0.41,0.43,0.74,0.77,0.99
		c0.56,0.4,1.21,0.52,1.94,0.38c0.75-0.16,1.35-0.54,1.8-1.16c0.47-0.64,0.67-1.34,0.59-2.09s-0.4-1.33-0.98-1.76
		c-0.66-0.48-1.46-0.55-2.39-0.23l0.63-0.86l-0.91-0.68l-3.2,4.37l0.92,0.67L33.78,105.807z M30.15,102.066
		c-0.49-0.49-0.79-0.97-0.89-1.43c-0.09-0.47,0-0.86,0.31-1.16c0.23-0.23,0.59-0.33,1.05-0.3c0.48,0.04,1.06,0.4,1.75,1.08
		l0.06,0.07l-2.01,2.01L30.15,102.066z M27.78,104.577c-0.36-0.36-0.56-0.72-0.63-1.08c-0.06-0.36,0.03-0.66,0.28-0.91
		c0.29-0.29,0.63-0.4,1.03-0.32c0.39,0.07,0.82,0.33,1.27,0.76l-1.74,1.74C27.93,104.717,27.85,104.657,27.78,104.577z
		 M33.95,100.396l-0.97-0.97c-0.76-0.76-1.53-1.21-2.29-1.36c-0.77-0.14-1.4,0.04-1.92,0.55c-0.72,0.73-0.8,1.68-0.2,2.86
		c-0.91-0.24-1.61-0.12-2.1,0.38c-0.41,0.4-0.55,0.93-0.43,1.58s0.49,1.29,1.1,1.9l0.93,0.93L33.95,100.396z M25.85,93.287
		c0.5,0.08,0.89,0.32,1.18,0.71c0.3,0.41,0.41,0.86,0.32,1.35c-0.08,0.5-0.33,0.89-0.74,1.19c-0.39,0.28-0.82,0.38-1.32,0.3
		c-0.49-0.09-0.88-0.32-1.16-0.71c-0.29-0.39-0.4-0.84-0.33-1.33c0.08-0.5,0.32-0.89,0.71-1.19
		C24.91,93.327,25.36,93.217,25.85,93.287z M23.3,94.687c-0.18,0.39-0.24,0.81-0.21,1.25c0.04,0.45,0.18,0.83,0.42,1.18
		c0.41,0.55,0.99,0.87,1.75,0.94c0.76,0.08,1.45-0.11,2.06-0.55c0.64-0.47,1.04-1.08,1.19-1.81c0.16-0.74,0.03-1.4-0.4-1.97
		c-0.48-0.66-1.22-0.98-2.21-0.95l0.87-0.63l-0.67-0.92l-4.36,3.19l0.67,0.92L23.3,94.687z M19.74,91.037
		c0.24,0.44,0.57,0.74,0.98,0.89c0.42,0.14,0.83,0.11,1.21-0.1c0.32-0.17,0.52-0.42,0.62-0.73c0.1-0.32,0.11-0.8,0.02-1.45
		c-0.08-0.64,0-1.04,0.26-1.18c0.15-0.08,0.32-0.08,0.51,0.02c0.2,0.09,0.35,0.24,0.46,0.43c0.16,0.3,0.19,0.65,0.07,1.06l0.79,0.57
		c0.38-0.75,0.39-1.45,0.03-2.11c-0.23-0.43-0.58-0.72-1.05-0.89c-0.46-0.15-0.89-0.13-1.28,0.09c-0.34,0.18-0.56,0.44-0.68,0.79
		c-0.12,0.35-0.13,0.84-0.06,1.45c0.09,0.61,0.02,0.97-0.19,1.09c-0.3,0.16-0.55,0.04-0.77-0.36c-0.09-0.17-0.14-0.33-0.15-0.48
		c0-0.16,0.01-0.36,0.03-0.6l-0.93-0.33C19.46,89.987,19.5,90.597,19.74,91.037z M18,84.947c-0.25-0.65-0.11-1.28,0.44-1.88
		l1.18,3.01C18.82,86.037,18.28,85.657,18,84.947z M17.11,83.197c-0.31,0.71-0.34,1.41-0.06,2.12c0.28,0.72,0.77,1.23,1.48,1.54
		c0.71,0.29,1.42,0.31,2.11,0.04c0.75-0.3,1.28-0.79,1.58-1.48c0.31-0.69,0.32-1.4,0.03-2.13c-0.37-0.95-1.03-1.58-2-1.86
		l-0.27,0.98c0.64,0.21,1.08,0.61,1.31,1.2c0.15,0.38,0.17,0.78,0.06,1.2c-0.1,0.41-0.39,0.77-0.86,1.05l-1.65-4.2
		C18.01,81.967,17.44,82.487,17.11,83.197z M12.67,76.597l-0.29-1.97l7.14-1.03l-0.16-1.12l-7.14,1.04l-0.29-1.97l-1.13,0.16
		l0.74,5.05L12.67,76.597z M17.52,66.487c0.37,0.34,0.55,0.76,0.56,1.24c0.01,0.5-0.16,0.93-0.52,1.28
		c-0.34,0.35-0.77,0.53-1.27,0.54c-0.47,0.01-0.88-0.16-1.23-0.51s-0.53-0.76-0.54-1.24c-0.02-0.49,0.15-0.91,0.49-1.27
		c0.35-0.35,0.76-0.53,1.25-0.54C16.75,65.977,17.17,66.146,17.52,66.487z M14.66,66.157c-0.36,0.22-0.66,0.51-0.88,0.9
		c-0.22,0.38-0.33,0.78-0.32,1.2c0.01,0.67,0.31,1.26,0.87,1.76c0.57,0.49,1.23,0.73,1.98,0.71c0.79-0.01,1.46-0.27,2-0.78
		c0.55-0.51,0.81-1.11,0.8-1.82c-0.02-0.81-0.44-1.49-1.26-2.02l1.07-0.03l-0.02-1.13l-5.36,0.1l0.02,1.13L14.66,66.157z
		 M18.12,58.827c0.31,0.39,0.42,0.83,0.36,1.3c-0.08,0.51-0.31,0.92-0.71,1.23c-0.39,0.31-0.84,0.42-1.34,0.34
		c-0.48-0.06-0.87-0.3-1.18-0.7c-0.3-0.4-0.41-0.84-0.35-1.32c0.08-0.5,0.31-0.9,0.71-1.2s0.84-0.41,1.33-0.35
		C17.43,58.207,17.82,58.437,18.12,58.827z M18.98,63.057l0.16-1.11l-1.13-0.16c0.43-0.17,0.78-0.42,1.07-0.77
		c0.28-0.35,0.45-0.75,0.52-1.18c0.09-0.66-0.11-1.28-0.6-1.87c-0.5-0.57-1.12-0.92-1.89-1.03c-0.76-0.11-1.45,0.06-2.08,0.48
		c-0.62,0.43-0.99,0.99-1.09,1.68c-0.13,0.89,0.18,1.64,0.91,2.24l-4.13-0.59l-0.16,1.11L18.98,63.057z M20.25,55.756l0.29-1.1
		l-8.2-2.16l-0.29,1.09L20.25,55.756z M17.62,48.687c0.26-0.66,0.8-1.04,1.62-1.12l-1.18,3.1
		C17.49,50.086,17.34,49.427,17.62,48.687z M18.15,46.747c-0.73,0.32-1.24,0.84-1.51,1.57c-0.29,0.74-0.26,1.47,0.07,2.18
		c0.33,0.72,0.85,1.21,1.57,1.48c0.77,0.3,1.5,0.29,2.21-0.02c0.71-0.31,1.21-0.85,1.5-1.6c0.37-0.98,0.3-1.91-0.24-2.79l-0.89,0.56
		c0.35,0.6,0.4,1.21,0.17,1.81c-0.15,0.39-0.4,0.71-0.77,0.95c-0.37,0.25-0.83,0.32-1.38,0.21l1.65-4.33
		C19.68,46.437,18.89,46.427,18.15,46.747z M19.26,42.856c-0.24,0.45-0.3,0.9-0.2,1.34c0.11,0.45,0.36,0.77,0.76,0.98
		c0.32,0.18,0.65,0.21,0.97,0.12c0.34-0.1,0.76-0.37,1.26-0.8c0.51-0.44,0.9-0.59,1.16-0.44c0.15,0.08,0.24,0.22,0.27,0.44
		c0.04,0.22-0.01,0.44-0.12,0.65c-0.16,0.3-0.45,0.52-0.87,0.65l-0.04,1c0.85-0.1,1.46-0.49,1.82-1.17c0.24-0.44,0.29-0.9,0.17-1.39
		c-0.12-0.5-0.38-0.85-0.79-1.06c-0.34-0.18-0.69-0.23-1.06-0.13c-0.36,0.1-0.79,0.36-1.27,0.77c-0.48,0.41-0.82,0.56-1.04,0.44
		c-0.3-0.16-0.34-0.44-0.13-0.85c0.1-0.17,0.21-0.3,0.34-0.4c0.13-0.1,0.3-0.19,0.52-0.3l-0.23-0.99
		C20.01,42.026,19.5,42.407,19.26,42.856z M22.67,32.097c-0.33,0.42-0.46,0.86-0.37,1.34c0.09,0.48,0.37,0.91,0.85,1.3l1,0.81
		l-0.63,0.78l0.82,0.66l0.63-0.78l3.41,2.76l0.72-0.89l-3.41-2.76l0.95-1.17l-0.82-0.66l-0.95,1.17l-1.06-0.86
		c-0.21-0.17-0.33-0.34-0.38-0.53c-0.04-0.18,0.01-0.35,0.13-0.51c0.16-0.18,0.42-0.33,0.8-0.46l-0.9-0.73
		C23.1,31.727,22.84,31.896,22.67,32.097z M32.34,32.427c-0.01,0.49-0.18,0.89-0.51,1.22c-0.34,0.33-0.75,0.5-1.23,0.5
		c-0.49,0.01-0.88-0.14-1.2-0.47c-0.32-0.33-0.48-0.74-0.47-1.22c0.02-0.48,0.2-0.89,0.55-1.23c0.33-0.33,0.74-0.5,1.22-0.5
		c0.47,0,0.87,0.16,1.18,0.49C32.2,31.537,32.35,31.947,32.34,32.427z M30.58,35.237c0.81,0,1.49-0.27,2.05-0.82
		c0.53-0.51,0.8-1.17,0.8-1.97c0.01-0.79-0.25-1.46-0.77-1.99c-0.52-0.53-1.17-0.8-1.97-0.8c-0.79,0-1.47,0.26-2.02,0.8
		c-0.53,0.52-0.8,1.18-0.82,1.98c-0.01,0.81,0.23,1.47,0.73,1.99C29.11,34.967,29.78,35.237,30.58,35.237z M32.5,27.227l3.2,4.22
		l0.9-0.67l-1.78-2.34c-0.24-0.31-0.33-0.65-0.29-1.02c0.05-0.36,0.22-0.66,0.52-0.89c0.06-0.03,0.18-0.1,0.37-0.2l-0.4-1.1
		c-0.18,0.09-0.32,0.16-0.41,0.22c-0.3,0.23-0.49,0.5-0.57,0.79c-0.07,0.3-0.07,0.7,0,1.2l-0.66-0.87L32.5,27.227z M44.68,22.997
		l-4.48-4.61l-1.1,0.43l6.53,6.73l0.32-6.75l4.72,4.84l0.42-9.37l-1.11,0.42l-0.3,6.35l-4.71-4.81L44.68,22.997z M57.43,20.396
		c-0.29,0.39-0.66,0.63-1.11,0.7c-0.47,0.08-0.91-0.01-1.31-0.29c-0.41-0.27-0.64-0.63-0.72-1.06c-0.07-0.46,0.03-0.88,0.32-1.27
		s0.67-0.62,1.15-0.7c0.46-0.08,0.88,0.01,1.28,0.29c0.39,0.27,0.62,0.62,0.7,1.06C57.81,19.577,57.71,19.997,57.43,20.396z
		 M54.39,21.697c0.66,0.46,1.37,0.61,2.15,0.48c0.72-0.12,1.3-0.5,1.76-1.15c0.45-0.65,0.62-1.34,0.5-2.07
		c-0.12-0.73-0.51-1.32-1.16-1.77c-0.66-0.46-1.36-0.62-2.1-0.5c-0.74,0.12-1.33,0.51-1.8,1.16c-0.47,0.65-0.65,1.33-0.53,2.04
		C53.34,20.637,53.73,21.237,54.39,21.697z M60.53,16.137l0.23,5.35l1.13-0.05l-0.12-2.96c-0.02-0.4,0.09-0.74,0.34-1.01
		c0.24-0.28,0.56-0.42,0.94-0.45c0.07,0,0.21,0.02,0.43,0.05l0.29-1.14c-0.2-0.04-0.36-0.06-0.47-0.06
		c-0.38,0.02-0.69,0.13-0.92,0.34s-0.46,0.54-0.69,0.98l-0.05-1.1L60.53,16.137z M69.44,20.237c-0.38,0.31-0.82,0.44-1.32,0.4
		c-0.47-0.04-0.87-0.25-1.19-0.65c-0.33-0.38-0.46-0.81-0.42-1.29c0.04-0.5,0.25-0.9,0.63-1.22c0.38-0.31,0.82-0.44,1.33-0.4
		c0.48,0.05,0.88,0.26,1.2,0.64c0.31,0.39,0.46,0.82,0.41,1.3C70.04,19.517,69.83,19.917,69.44,20.237z M70.09,17.457
		c-0.19-0.4-0.45-0.73-0.79-1c-0.34-0.26-0.73-0.41-1.14-0.45c-0.7-0.06-1.33,0.16-1.89,0.66c-0.55,0.51-0.86,1.15-0.93,1.91
		c-0.07,0.79,0.12,1.48,0.57,2.08c0.45,0.6,1.01,0.93,1.71,1c0.87,0.07,1.6-0.29,2.21-1.08l-0.1,1.11l1.1,0.1l0.76-8.41l-1.12-0.11
		L70.09,17.457z M77.65,16.237c0.23,0.35,0.3,0.72,0.21,1.09c-0.13,0.5-0.42,0.81-0.87,0.93c-0.45,0.13-1.09,0.09-1.92-0.11
		l0.7-2.81C76.79,15.586,77.42,15.887,77.65,16.237z M72.92,22.146l1.09,0.28l0.82-3.31c1.2,0.31,2.16,0.31,2.87-0.01
		c0.71-0.32,1.14-0.83,1.32-1.52c0.17-0.69,0.03-1.31-0.43-1.88c-0.45-0.57-1.14-0.97-2.05-1.2l-1.62-0.4L72.92,22.146z
		 M81.08,18.947l-1.91,4.93l1.04,0.4l1.05-2.73c0.14-0.36,0.38-0.63,0.71-0.78c0.34-0.15,0.68-0.16,1.03-0.03
		c0.06,0.03,0.19,0.1,0.37,0.22l0.72-0.92c-0.17-0.12-0.3-0.2-0.4-0.24c-0.36-0.14-0.68-0.16-0.97-0.06
		c-0.3,0.1-0.64,0.31-1.02,0.62l0.39-1.01L81.08,18.947z M87.66,22.827c0.61,0.33,0.9,0.91,0.88,1.72l-2.84-1.54
		C86.33,22.526,86.98,22.467,87.66,22.827z M89.47,23.597c-0.21-0.75-0.65-1.31-1.32-1.67c-0.68-0.37-1.39-0.44-2.13-0.21
		c-0.73,0.23-1.28,0.67-1.63,1.32c-0.38,0.71-0.46,1.42-0.26,2.15c0.21,0.72,0.66,1.27,1.36,1.65c0.89,0.49,1.8,0.53,2.72,0.13
		l-0.42-0.93c-0.63,0.25-1.22,0.23-1.78-0.07c-0.36-0.2-0.63-0.48-0.82-0.87c-0.18-0.38-0.19-0.84-0.02-1.36l3.97,2.14
		C89.56,25.106,89.67,24.347,89.47,23.597z M93.65,25.237c-0.42-0.29-0.84-0.41-1.29-0.37c-0.45,0.05-0.8,0.26-1.06,0.62
		c-0.2,0.29-0.29,0.61-0.24,0.94c0.05,0.34,0.25,0.79,0.62,1.33c0.36,0.55,0.45,0.95,0.28,1.19c-0.1,0.14-0.26,0.21-0.47,0.22
		c-0.22-0.01-0.42-0.08-0.61-0.21c-0.28-0.19-0.46-0.51-0.53-0.94l-0.98-0.17c-0.01,0.86,0.29,1.51,0.91,1.95
		c0.4,0.29,0.85,0.4,1.35,0.35c0.49-0.07,0.88-0.28,1.14-0.65c0.22-0.31,0.31-0.65,0.26-1.02c-0.05-0.37-0.25-0.82-0.59-1.34
		c-0.34-0.53-0.44-0.89-0.29-1.08c0.19-0.28,0.47-0.28,0.84-0.02c0.16,0.12,0.28,0.25,0.35,0.39c0.08,0.14,0.16,0.33,0.23,0.55
		l1.01-0.1C94.37,26.077,94.06,25.537,93.65,25.237z M97.65,28.546c-0.37-0.33-0.78-0.49-1.22-0.49s-0.81,0.16-1.1,0.49
		c-0.23,0.27-0.34,0.57-0.32,0.89c0.01,0.34,0.17,0.79,0.47,1.36c0.29,0.58,0.35,0.98,0.15,1.19c-0.1,0.12-0.27,0.18-0.48,0.16
		s-0.41-0.1-0.58-0.25c-0.25-0.22-0.38-0.54-0.42-0.96l-0.92-0.27c-0.11,0.83,0.12,1.49,0.68,1.98c0.36,0.32,0.79,0.48,1.28,0.47
		c0.49-0.01,0.88-0.18,1.18-0.51c0.24-0.28,0.36-0.6,0.35-0.97c-0.01-0.37-0.15-0.82-0.43-1.37c-0.28-0.54-0.34-0.9-0.19-1.08
		c0.22-0.25,0.5-0.23,0.84,0.07c0.14,0.13,0.24,0.27,0.3,0.41c0.05,0.14,0.11,0.33,0.17,0.56h0.98
		C98.27,29.437,98.02,28.876,97.65,28.546z"/>
</g>
</svg>
