<?xml version="1.0" encoding="utf-8"?>
<!-- Generator: Adobe Illustrator 15.0.2, SVG Export Plug-In . SVG Version: 6.00 Build 0)  -->
<!DOCTYPE svg PUBLIC "-//W3C//DTD SVG 1.1//EN" "http://www.w3.org/Graphics/SVG/1.1/DTD/svg11.dtd">
<svg version="1.1" xmlns="http://www.w3.org/2000/svg" xmlns:xlink="http://www.w3.org/1999/xlink" x="0px" y="0px"
	 width="228.54px" height="228px" viewBox="0 0 228.54 228" enable-background="new 0 0 228.54 228" xml:space="preserve">
<g id="brand-icon">
	<path id="c-mark" fill-rule="evenodd" clip-rule="evenodd" fill="#27AE60" d="M185.07,96.14c8.25,32.74-6.04,65.4-35.79,81.93
		c-29.63,16.45-65.11,11.62-89.1-12.02c-23.92-23.56-28.92-58.4-12.6-87.61c16.37-29.28,49.02-43.7,82.07-36.14l6.78-28.18
		C90.4,3.67,45.01,23.84,22.29,64.58C-0.35,105.19,6.58,153.61,39.77,186.4c33.35,32.94,82.73,39.78,124.04,16.93
		c41.56-22.98,61.54-68.55,49.99-114.23L185.07,96.14z"/>
	<path id="dbt-mark" fill-rule="evenodd" clip-rule="evenodd" fill="#666666" d="M83.57,82.39l60.93,60.16l17.83,17.61
		c22.87-23.91,24.66-60.27,5.36-86.12l10.52-10.39l23.13,22.65l15.46-15.21l-23.17-22.64l17.27-17.04l-15.45-15.06l-17.23,17.04
		l-23.05-22.53l-15.33,15.21l23,22.52l-10.57,10.46c-26.16-18.41-62.45-16.35-86.34,5.93L83.57,82.39z M104.54,72.09
		c9.98-1.85,20.5-0.21,29.54,4.94l-12.25,12.1L104.54,72.09z M149.51,91.97c5.52,9.05,7.33,19.69,5.44,29.78l-17.83-17.56
		L149.51,91.97z M140.87,146.07L80.02,85.96L62.38,68.54c-24.43,26.37-23.79,67.31,1.95,92.9c25.82,25.67,67.49,26.53,94.37,2.25
		L140.87,146.07z M119.51,156.01c-13.28,2.14-27.36-1.86-37.56-11.98c-10.18-10.1-14.17-24-11.98-37.07L119.51,156.01z"/>
</g>
</svg>
