<?xml version="1.0" encoding="utf-8"?>
<!-- Generator: Adobe Illustrator 15.0.2, SVG Export Plug-In . SVG Version: 6.00 Build 0)  -->
<!DOCTYPE svg PUBLIC "-//W3C//DTD SVG 1.1//EN" "http://www.w3.org/Graphics/SVG/1.1/DTD/svg11.dtd">
<svg version="1.1" xmlns="http://www.w3.org/2000/svg" xmlns:xlink="http://www.w3.org/1999/xlink" x="0px" y="0px"
	 width="213.987px" height="214px" viewBox="0 0 213.987 214" enable-background="new 0 0 213.987 214" xml:space="preserve">
<path fill-rule="evenodd" clip-rule="evenodd" fill="#555" d="M30.634,15.19c5.18,0,45.23,10.35,55.61,45.46
	c1.15-3.74,2.01-32.8-15.28-40.86c-4.03-3.17-19.3-16.11-56.47-8.35c11.24,10.36,7.78,28.2,26.8,47.48
	c10.66,11.22,27.66,9.21,34.86,10.93c6.05,4.61,6.34,13.81,6.34,17.84c0.31,4.54,0.99,8.75,1.93,12.63
	c-34.54,1.98-60.93,12.63-60.93,25.47c0,14.25,32.46,25.8,72.5,25.8s72.5-11.55,72.5-25.8c0-14.24-32.46-25.79-72.5-25.79
	c-1.07,0-2.14,0.01-3.21,0.02c-0.73-1.73-1.29-3.69-1.62-5.91c1.18-15.27,12.08-22.94,17.55-26.85c12.1-5.46,15.56,6.62,46.97,7.2
	c14.98,0.57,34.86-12.66,45.81-9.79c-5.76-7.76-15.27-29.63-39.47-31.93c-3.46-0.29-19.6-4.32-43.51,13.52
	c44.95-15.54,65.4,6.62,70.3,10.36c-27.08-13.24-51.86-14.96-77.22,1.44c-6.34,3.16-16.42,12.37-20.17,17.55
	c-2.27,2.5-3.6,5.36-4.38,7.9c-0.32-0.77-0.59-1.65-0.8-2.72C85.664,79.92,81.054,35.04,30.634,15.19z M95.994,206
	c39.71,0,71.97-11.36,72.5-25.44v-0.35v-54.06c-0.09,2.35-1.06,4.62-2.8,6.77v45.81v0.32c-0.51,12.96-31.52,23.42-69.7,23.42
	c-38.17,0-69.18-10.46-69.69-23.42v-0.32v-45.8c-1.75-2.16-2.72-4.43-2.81-6.78v54.06v0.35C24.023,194.64,56.284,206,95.994,206z"
/>
</svg>
