<?xml version="1.0" encoding="utf-8"?>
<!-- Generator: Adobe Illustrator 15.0.2, SVG Export Plug-In . SVG Version: 6.00 Build 0)  -->
<!DOCTYPE svg PUBLIC "-//W3C//DTD SVG 1.1//EN" "http://www.w3.org/Graphics/SVG/1.1/DTD/svg11.dtd">
<svg version="1.1" xmlns="http://www.w3.org/2000/svg" xmlns:xlink="http://www.w3.org/1999/xlink" x="0px" y="0px" width="305px"
	 height="274px" viewBox="0 0 305 274" enable-background="new 0 0 305 274" xml:space="preserve">
<g id="brand-typo">
	<path fill-rule="evenodd" clip-rule="evenodd" fill="#666666" d="M19.52,262.69c-0.02-0.12-0.04-0.24-0.04-0.3
		c-0.02-0.06-0.05-0.12-0.09-0.15c-0.05-0.03-0.07-0.06-0.11-0.06c-0.14,0-0.34,0.12-0.57,0.3c-0.22,0.21-0.52,0.42-0.88,0.66
		c-0.36,0.23-0.81,0.47-1.31,0.65c-0.51,0.21-1.12,0.3-1.8,0.3c-0.83,0-1.58-0.18-2.23-0.57c-0.68-0.35-1.22-0.92-1.67-1.64
		c-0.45-0.71-0.81-1.58-1.04-2.62c-0.22-1.05-0.34-2.24-0.34-3.61c0-1.4,0.12-2.66,0.39-3.73c0.27-1.07,0.63-2,1.08-2.74
		c0.45-0.75,1.01-1.32,1.67-1.7c0.63-0.36,1.35-0.57,2.14-0.57c0.7,0,1.31,0.12,1.83,0.3c0.49,0.21,0.92,0.41,1.28,0.65
		c0.36,0.24,0.63,0.48,0.86,0.66c0.22,0.21,0.38,0.3,0.52,0.3c0.04,0,0.09,0,0.13-0.06c0.05-0.03,0.07-0.09,0.12-0.18l0.06-0.3
		c0-0.12,0.03-0.24,0.03-0.42c0-0.12-0.03-0.24-0.03-0.35c0-0.09-0.02-0.18-0.02-0.27l-0.07-0.21c-0.04-0.06-0.11-0.18-0.22-0.33
		c-0.12-0.12-0.32-0.3-0.63-0.54c-0.32-0.21-0.66-0.38-1.04-0.56c-0.38-0.18-0.79-0.3-1.24-0.42c-0.45-0.12-0.93-0.18-1.4-0.18
		c-1.04,0-1.98,0.27-2.82,0.75c-0.86,0.5-1.58,1.22-2.19,2.14c-0.6,0.93-1.08,2.06-1.39,3.37c-0.34,1.35-0.5,2.84-0.5,4.51
		c0,1.64,0.14,3.1,0.45,4.35c0.32,1.29,0.75,2.36,1.33,3.23c0.59,0.89,1.29,1.55,2.1,1.99c0.81,0.45,1.74,0.66,2.75,0.66
		c0.63,0,1.2-0.06,1.74-0.21c0.52-0.12,0.97-0.3,1.37-0.51c0.41-0.17,0.72-0.38,0.99-0.59s0.43-0.36,0.52-0.45
		c0.09-0.09,0.14-0.18,0.18-0.24c0.03-0.06,0.05-0.15,0.07-0.24c0-0.06,0.02-0.15,0.02-0.27c0-0.09,0.03-0.2,0.03-0.35
		C19.55,262.96,19.52,262.81,19.52,262.69z"
	/>
	<path fill-rule="evenodd" clip-rule="evenodd" fill="#666666" d="M34.77,245.42c0-0.06-0.02-0.12-0.04-0.18
		c-0.03-0.06-0.07-0.09-0.12-0.12c-0.04-0.03-0.13-0.06-0.22-0.09c-0.09,0-0.2-0.03-0.34-0.03c-0.13,0-0.27,0.03-0.36,0.03
		c-0.09,0.03-0.18,0.06-0.23,0.09c-0.04,0.03-0.09,0.06-0.11,0.12c-0.02,0.06-0.02,0.12-0.02,0.18v12.62c0,1.01-0.11,1.9-0.29,2.65
		c-0.21,0.78-0.5,1.4-0.86,1.91c-0.38,0.51-0.84,0.89-1.38,1.13c-0.54,0.24-1.12,0.36-1.8,0.36s-1.29-0.12-1.83-0.39
		c-0.54-0.24-0.99-0.62-1.35-1.13c-0.38-0.51-0.68-1.16-0.86-1.94c-0.2-0.77-0.29-1.67-0.29-2.68v-12.53
		c0-0.06-0.02-0.12-0.05-0.18c-0.02-0.06-0.06-0.09-0.11-0.12c-0.04-0.03-0.13-0.06-0.22-0.09c-0.09,0-0.21-0.03-0.34-0.03
		c-0.14,0-0.25,0.03-0.34,0.03c-0.09,0.03-0.18,0.06-0.23,0.09c-0.06,0.03-0.11,0.06-0.13,0.12c-0.02,0.06-0.02,0.12-0.02,0.18
		v12.94c0,1.26,0.13,2.33,0.4,3.28c0.27,0.96,0.68,1.76,1.17,2.42c0.5,0.66,1.11,1.13,1.79,1.46c0.67,0.33,1.44,0.48,2.27,0.48
		c0.91,0,1.72-0.15,2.44-0.51c0.72-0.36,1.35-0.86,1.87-1.52c0.5-0.65,0.9-1.49,1.17-2.47c0.27-0.96,0.43-2.09,0.43-3.38V245.42z"
	/>
	<path fill-rule="evenodd" clip-rule="evenodd" fill="#666666" d="M48.17,258.04c-0.25-0.57-0.56-1.08-0.97-1.53
		c-0.4-0.41-0.88-0.8-1.4-1.13c-0.51-0.3-1.03-0.6-1.57-0.89c-0.55-0.27-1.09-0.54-1.61-0.84c-0.51-0.27-0.97-0.57-1.37-0.92
		c-0.41-0.33-0.75-0.72-0.99-1.17c-0.25-0.44-0.36-0.98-0.36-1.64c0-0.42,0.04-0.8,0.18-1.16c0.13-0.36,0.31-0.69,0.58-0.96
		c0.27-0.26,0.59-0.47,0.99-0.65c0.39-0.15,0.86-0.24,1.4-0.24s1.02,0.12,1.45,0.3c0.4,0.21,0.76,0.41,1.08,0.65
		c0.29,0.24,0.54,0.48,0.74,0.66c0.21,0.21,0.36,0.3,0.48,0.3c0.04,0,0.09,0,0.13-0.06c0.05-0.06,0.07-0.12,0.09-0.21
		c0.02-0.06,0.05-0.18,0.07-0.3c0-0.12,0.02-0.24,0.02-0.39s-0.02-0.26-0.02-0.38s-0.02-0.21-0.02-0.3L47,247
		c-0.02-0.06-0.07-0.15-0.16-0.27c-0.09-0.12-0.25-0.3-0.52-0.54c-0.27-0.21-0.56-0.41-0.88-0.59c-0.31-0.18-0.67-0.3-1.03-0.42
		c-0.36-0.12-0.73-0.18-1.09-0.18c-0.72,0-1.39,0.12-1.98,0.36c-0.61,0.24-1.13,0.59-1.56,1.04c-0.43,0.45-0.76,0.99-0.99,1.61
		c-0.22,0.66-0.34,1.37-0.34,2.15c0,0.84,0.12,1.55,0.36,2.15c0.25,0.59,0.59,1.1,1,1.52c0.4,0.42,0.85,0.8,1.37,1.1
		c0.52,0.33,1.06,0.63,1.6,0.9c0.54,0.3,1.06,0.56,1.58,0.83c0.52,0.3,0.99,0.6,1.4,0.93c0.4,0.36,0.72,0.74,0.97,1.19
		c0.25,0.45,0.38,0.99,0.38,1.58c0,0.6-0.11,1.14-0.29,1.58c-0.18,0.48-0.45,0.87-0.77,1.17c-0.34,0.32-0.74,0.56-1.19,0.74
		c-0.45,0.18-0.97,0.24-1.51,0.24c-0.68,0-1.29-0.09-1.79-0.3c-0.51-0.18-0.94-0.42-1.3-0.65c-0.36-0.24-0.68-0.45-0.91-0.66
		c-0.22-0.18-0.4-0.3-0.51-0.3c-0.07,0-0.12,0.03-0.16,0.06c-0.05,0.03-0.09,0.09-0.14,0.15c-0.04,0.09-0.06,0.18-0.06,0.3
		c-0.03,0.12-0.03,0.3-0.03,0.48c0,0.26,0.03,0.47,0.07,0.65c0.05,0.18,0.11,0.36,0.2,0.48c0.09,0.12,0.27,0.3,0.54,0.48
		c0.25,0.18,0.57,0.38,0.95,0.56c0.36,0.18,0.79,0.36,1.29,0.48c0.47,0.12,0.99,0.18,1.55,0.18c0.79,0,1.54-0.12,2.21-0.39
		c0.68-0.27,1.24-0.65,1.74-1.16c0.5-0.51,0.88-1.13,1.15-1.85c0.27-0.72,0.41-1.55,0.41-2.48
		C48.56,259.32,48.42,258.63,48.17,258.04z"
	/>
	<path fill-rule="evenodd" clip-rule="evenodd" fill="#666666" d="M62.32,245.57c-0.03-0.12-0.05-0.24-0.09-0.33l-0.14-0.18
		c-0.04-0.03-0.11-0.06-0.18-0.06H49.78c-0.09,0-0.16,0.03-0.21,0.06l-0.13,0.18c-0.05,0.09-0.07,0.21-0.07,0.33
		c-0.02,0.12-0.02,0.27-0.02,0.41c0,0.18,0,0.3,0.02,0.42c0,0.12,0.02,0.21,0.07,0.27c0.04,0.09,0.09,0.15,0.13,0.18
		c0.05,0.06,0.12,0.06,0.21,0.06h5.34v18.67c0,0.06,0,0.12,0.02,0.18c0.03,0.06,0.07,0.12,0.12,0.15c0.04,0.03,0.13,0.06,0.22,0.06
		c0.09,0.03,0.23,0.03,0.36,0.03c0.14,0,0.25,0,0.34-0.03c0.09,0,0.18-0.03,0.23-0.06c0.04-0.03,0.09-0.09,0.11-0.15
		c0.02-0.06,0.05-0.12,0.05-0.18v-18.67h5.34c0.04,0,0.11,0,0.18-0.06c0.05-0.03,0.09-0.09,0.14-0.18
		c0.04-0.06,0.06-0.15,0.09-0.27c0-0.12,0.02-0.24,0.02-0.42C62.34,245.84,62.32,245.69,62.32,245.57z"/>
	<path fill-rule="evenodd" clip-rule="evenodd" fill="#666666" d="M75.83,258.75c-0.2,1.05-0.54,1.97-0.99,2.75
		c-0.46,0.8-1.06,1.43-1.81,1.9c-0.74,0.48-1.64,0.69-2.73,0.69c-1.12,0-2.05-0.21-2.77-0.66c-0.72-0.41-1.31-1.04-1.76-1.81
		c-0.45-0.78-0.74-1.68-0.92-2.75c-0.18-1.04-0.27-2.18-0.27-3.43c0-1.13,0.09-2.21,0.29-3.25c0.2-1.05,0.54-1.97,0.99-2.75
		c0.45-0.77,1.06-1.37,1.8-1.84c0.73-0.45,1.65-0.69,2.73-0.69c1.09,0,1.99,0.24,2.71,0.66c0.72,0.44,1.31,1.04,1.76,1.81
		c0.45,0.78,0.77,1.71,0.97,2.75c0.18,1.04,0.29,2.15,0.29,3.31S76.01,257.71,75.83,258.75z M77.14,251
		c-0.27-1.26-0.7-2.33-1.29-3.23c-0.59-0.89-1.31-1.58-2.19-2.05c-0.9-0.48-1.94-0.72-3.15-0.72c-1.24,0-2.33,0.27-3.25,0.78
		c-0.93,0.5-1.69,1.22-2.3,2.14c-0.63,0.93-1.08,2.03-1.38,3.34c-0.31,1.32-0.45,2.75-0.45,4.36c0,1.61,0.14,3.07,0.41,4.35
		c0.27,1.29,0.67,2.36,1.26,3.26c0.56,0.89,1.29,1.58,2.19,2.05c0.88,0.48,1.94,0.72,3.2,0.72c1.22,0,2.3-0.24,3.23-0.75
		c0.92-0.5,1.69-1.22,2.3-2.17c0.6-0.93,1.06-2.06,1.37-3.37c0.32-1.32,0.47-2.81,0.47-4.45C77.56,253.68,77.41,252.25,77.14,251z"
		/>
	<path fill-rule="evenodd" clip-rule="evenodd" fill="#666666" d="M95.68,246.01c0-0.17-0.03-0.35-0.07-0.47
		c-0.05-0.12-0.11-0.24-0.18-0.33c-0.07-0.06-0.14-0.12-0.2-0.15C95.14,245.03,95.07,245,95,245h-0.9c-0.14,0-0.27,0.03-0.38,0.06
		c-0.14,0.06-0.25,0.12-0.34,0.24c-0.09,0.12-0.21,0.24-0.3,0.42c-0.09,0.17-0.18,0.41-0.24,0.65l-4.33,16.56h-0.05l-4.26-16.62
		c-0.07-0.18-0.14-0.36-0.23-0.53c-0.09-0.18-0.18-0.3-0.29-0.42c-0.14-0.12-0.27-0.21-0.41-0.27c-0.15-0.06-0.33-0.09-0.54-0.09
		h-0.81c-0.13,0-0.29,0.09-0.45,0.24c-0.16,0.15-0.23,0.42-0.23,0.77v19.57c0,0.06,0,0.12,0.03,0.18c0.02,0.06,0.06,0.12,0.11,0.15
		c0.05,0.03,0.14,0.06,0.23,0.06c0.09,0.03,0.2,0.03,0.33,0.03c0.14,0,0.27,0,0.36-0.03c0.09,0,0.16-0.03,0.23-0.06
		c0.05-0.03,0.09-0.09,0.11-0.15c0.03-0.06,0.05-0.12,0.05-0.18v-18.85h0.02l4.96,18.97c0,0.06,0,0.09,0.05,0.12
		c0.04,0.06,0.09,0.09,0.13,0.09c0.05,0.03,0.14,0.06,0.23,0.06c0.09,0.03,0.18,0.03,0.31,0.03c0.09,0,0.18,0,0.27-0.03
		c0.09,0,0.16-0.03,0.21-0.06c0.04,0,0.09-0.03,0.13-0.09c0.05-0.03,0.07-0.06,0.09-0.12l5.12-18.97h0.02v18.85
		c0,0.06,0,0.12,0.03,0.18c0.02,0.06,0.06,0.12,0.11,0.15c0.04,0.03,0.13,0.06,0.22,0.06c0.1,0.03,0.21,0.03,0.34,0.03
		c0.14,0,0.27,0,0.36-0.03c0.09,0,0.16-0.03,0.23-0.06c0.04-0.03,0.09-0.09,0.11-0.15c0.02-0.06,0.05-0.12,0.05-0.18V246.01z"/>
	<path fill-rule="evenodd" clip-rule="evenodd" fill="#666666" d="M115.64,259.23c-0.27,1.1-0.65,2.03-1.15,2.74
		c-0.49,0.72-1.12,1.26-1.87,1.61c-0.76,0.36-1.69,0.51-2.77,0.51h-2.48v-17.18h2.46c1.17,0,2.12,0.21,2.88,0.63
		c0.75,0.41,1.38,1.01,1.87,1.76c0.5,0.74,0.86,1.64,1.09,2.65c0.22,1.04,0.36,2.15,0.36,3.34
		C116.03,256.84,115.89,258.15,115.64,259.23z M117,251.03c-0.32-1.26-0.79-2.33-1.4-3.23c-0.63-0.89-1.4-1.58-2.32-2.05
		c-0.93-0.48-2.06-0.75-3.36-0.75h-3.32c-0.16,0-0.31,0.09-0.45,0.24c-0.16,0.15-0.23,0.42-0.23,0.77v18.98
		c0,0.38,0.07,0.65,0.23,0.8c0.14,0.15,0.29,0.21,0.45,0.21h3.09c1.31,0,2.46-0.21,3.41-0.69c0.94-0.47,1.75-1.16,2.41-2.05
		c0.63-0.9,1.13-2.03,1.46-3.4c0.32-1.35,0.5-2.9,0.5-4.66C117.47,253.65,117.31,252.28,117,251.03z"/>
	<path fill-rule="evenodd" clip-rule="evenodd" fill="#666666" d="M129.31,258.36h-6.2l3.09-11.45L129.31,258.36z M127.26,245.39
		c-0.04-0.06-0.07-0.12-0.11-0.18c-0.05-0.06-0.11-0.09-0.18-0.12c-0.09-0.03-0.18-0.06-0.29-0.06c-0.12,0-0.25-0.03-0.39-0.03
		c-0.16,0-0.29,0.03-0.4,0.03c-0.12,0-0.21,0.03-0.3,0.06c-0.09,0.03-0.13,0.06-0.18,0.12c-0.04,0.06-0.09,0.12-0.11,0.18
		l-5.52,19.86c-0.05,0.18-0.07,0.3-0.07,0.39c0,0.12,0.02,0.18,0.07,0.24c0.04,0.06,0.11,0.09,0.22,0.09
		c0.09,0.03,0.23,0.03,0.41,0.03c0.13,0,0.24,0,0.33-0.03c0.09,0,0.16-0.03,0.21-0.09c0.04-0.03,0.09-0.06,0.13-0.12l0.07-0.18
		l1.44-5.31h7.24l1.45,5.34c0,0.06,0.02,0.12,0.06,0.18c0.03,0.06,0.07,0.09,0.12,0.12c0.04,0.03,0.13,0.06,0.22,0.06
		c0.09,0.03,0.2,0.03,0.36,0.03c0.14,0,0.27,0,0.36-0.03c0.09,0,0.18-0.03,0.23-0.09c0.04-0.06,0.07-0.12,0.07-0.24
		c0-0.09,0-0.21-0.05-0.39L127.26,245.39z"/>
	<path fill-rule="evenodd" clip-rule="evenodd" fill="#666666" d="M146.46,245.57c-0.03-0.12-0.05-0.24-0.09-0.33l-0.14-0.18
		c-0.04-0.03-0.11-0.06-0.18-0.06h-12.13c-0.09,0-0.16,0.03-0.2,0.06l-0.14,0.18c-0.04,0.09-0.07,0.21-0.07,0.33
		c-0.02,0.12-0.02,0.27-0.02,0.41c0,0.18,0,0.3,0.02,0.42c0,0.12,0.03,0.21,0.07,0.27c0.05,0.09,0.09,0.15,0.14,0.18
		c0.04,0.06,0.11,0.06,0.2,0.06h5.34v18.67c0,0.06,0,0.12,0.03,0.18c0.02,0.06,0.06,0.12,0.11,0.15c0.04,0.03,0.13,0.06,0.22,0.06
		c0.09,0.03,0.23,0.03,0.36,0.03c0.14,0,0.25,0,0.34-0.03c0.09,0,0.18-0.03,0.23-0.06c0.04-0.03,0.09-0.09,0.11-0.15
		c0.02-0.06,0.05-0.12,0.05-0.18v-18.67h5.34c0.05,0,0.11,0,0.18-0.06c0.05-0.03,0.09-0.09,0.14-0.18
		c0.04-0.06,0.06-0.15,0.09-0.27c0-0.12,0.02-0.24,0.02-0.42C146.48,245.84,146.46,245.69,146.46,245.57z"/>
	<path fill-rule="evenodd" clip-rule="evenodd" fill="#666666" d="M155.44,258.36h-6.2l3.08-11.45L155.44,258.36z M153.38,245.39
		c-0.04-0.06-0.06-0.12-0.11-0.18c-0.04-0.06-0.11-0.09-0.18-0.12c-0.09-0.03-0.18-0.06-0.29-0.06c-0.11,0-0.25-0.03-0.39-0.03
		c-0.15,0-0.29,0.03-0.4,0.03c-0.11,0-0.2,0.03-0.29,0.06c-0.09,0.03-0.14,0.06-0.18,0.12c-0.05,0.06-0.09,0.12-0.12,0.18
		l-5.52,19.86c-0.05,0.18-0.07,0.3-0.07,0.39c0,0.12,0.02,0.18,0.07,0.24c0.04,0.06,0.11,0.09,0.22,0.09
		c0.09,0.03,0.23,0.03,0.41,0.03c0.13,0,0.25,0,0.34-0.03c0.09,0,0.16-0.03,0.2-0.09c0.05-0.03,0.09-0.06,0.14-0.12l0.06-0.18
		l1.45-5.31h7.24l1.44,5.34c0,0.06,0.02,0.12,0.07,0.18c0.02,0.06,0.06,0.09,0.11,0.12c0.04,0.03,0.13,0.06,0.22,0.06
		c0.09,0.03,0.21,0.03,0.37,0.03c0.13,0,0.27,0,0.36-0.03c0.09,0,0.18-0.03,0.22-0.09c0.05-0.06,0.07-0.12,0.07-0.24
		c0-0.09,0-0.21-0.05-0.39L153.38,245.39z"/>
	<path fill-rule="evenodd" clip-rule="evenodd" fill="#666666" d="M170.87,262c-0.18,0.48-0.43,0.87-0.75,1.17
		c-0.31,0.29-0.7,0.53-1.1,0.68c-0.41,0.18-0.88,0.24-1.4,0.24h-3.68v-7.64h3.02c0.75,0,1.38,0.09,1.88,0.27
		c0.49,0.18,0.92,0.42,1.26,0.75c0.34,0.36,0.61,0.77,0.79,1.25c0.18,0.48,0.27,1.05,0.27,1.7
		C171.16,261.02,171.05,261.56,170.87,262z M169.54,252.1c-0.12,0.48-0.3,0.89-0.52,1.25c-0.25,0.36-0.57,0.66-0.93,0.87
		c-0.36,0.24-0.83,0.33-1.42,0.33h-2.73v-7.64h2.48c0.66,0,1.2,0.09,1.6,0.27c0.41,0.18,0.73,0.44,0.97,0.74
		c0.25,0.33,0.43,0.72,0.55,1.17c0.11,0.47,0.18,0.98,0.18,1.52C169.72,251.14,169.65,251.62,169.54,252.1z M172.33,258.39
		c-0.18-0.59-0.43-1.1-0.74-1.55c-0.32-0.45-0.7-0.8-1.11-1.1c-0.43-0.3-0.88-0.48-1.35-0.6c0.34-0.21,0.63-0.48,0.88-0.8
		c0.25-0.33,0.45-0.69,0.63-1.11c0.18-0.38,0.29-0.8,0.38-1.28s0.14-0.95,0.14-1.49c0-0.84-0.09-1.58-0.27-2.27
		c-0.18-0.65-0.45-1.22-0.81-1.7c-0.36-0.48-0.84-0.83-1.4-1.1c-0.57-0.24-1.29-0.39-2.19-0.39h-3.31c-0.16,0-0.32,0.09-0.45,0.24
		c-0.16,0.15-0.23,0.42-0.23,0.77v18.98c0,0.38,0.07,0.65,0.23,0.8c0.15,0.15,0.31,0.21,0.47,0.21h4.19c0.59,0,1.09-0.06,1.54-0.18
		c0.45-0.12,0.85-0.27,1.24-0.51c0.36-0.2,0.7-0.47,1.01-0.8c0.29-0.33,0.54-0.72,0.77-1.14c0.2-0.41,0.36-0.89,0.47-1.4
		c0.11-0.5,0.18-1.07,0.18-1.7C172.6,259.62,172.51,258.99,172.33,258.39z"/>
	<path fill-rule="evenodd" clip-rule="evenodd" fill="#666666" d="M184.45,258.36h-6.21l3.09-11.45L184.45,258.36z M182.39,245.39
		c-0.04-0.06-0.06-0.12-0.11-0.18c-0.04-0.06-0.11-0.09-0.18-0.12c-0.09-0.03-0.18-0.06-0.29-0.06c-0.12,0-0.25-0.03-0.39-0.03
		c-0.15,0-0.29,0.03-0.4,0.03s-0.2,0.03-0.29,0.06c-0.1,0.03-0.14,0.06-0.19,0.12c-0.04,0.06-0.09,0.12-0.11,0.18l-5.52,19.86
		c-0.05,0.18-0.07,0.3-0.07,0.39c0,0.12,0.02,0.18,0.07,0.24c0.04,0.06,0.11,0.09,0.22,0.09c0.09,0.03,0.23,0.03,0.41,0.03
		c0.13,0,0.25,0,0.34-0.03c0.09,0,0.15-0.03,0.2-0.09c0.04-0.03,0.09-0.06,0.13-0.12l0.07-0.18l1.45-5.31h7.23l1.45,5.34
		c0,0.06,0.02,0.12,0.07,0.18c0.02,0.06,0.06,0.09,0.11,0.12c0.04,0.03,0.13,0.06,0.22,0.06c0.09,0.03,0.21,0.03,0.36,0.03
		c0.14,0,0.28,0,0.37-0.03c0.09,0,0.18-0.03,0.22-0.09c0.05-0.06,0.07-0.12,0.07-0.24c0-0.09,0-0.21-0.05-0.39L182.39,245.39z"/>
	<path fill-rule="evenodd" clip-rule="evenodd" fill="#666666" d="M199.79,258.04c-0.25-0.57-0.57-1.08-0.97-1.53
		c-0.41-0.41-0.88-0.8-1.4-1.13c-0.52-0.3-1.04-0.6-1.58-0.89c-0.54-0.27-1.08-0.54-1.6-0.84c-0.52-0.27-0.97-0.57-1.38-0.92
		c-0.4-0.33-0.74-0.72-0.99-1.17c-0.25-0.44-0.36-0.98-0.36-1.64c0-0.42,0.04-0.8,0.18-1.16c0.13-0.36,0.32-0.69,0.59-0.96
		c0.27-0.26,0.58-0.47,0.99-0.65c0.38-0.15,0.85-0.24,1.4-0.24c0.54,0,1.01,0.12,1.44,0.3c0.41,0.21,0.77,0.41,1.08,0.65
		c0.29,0.24,0.54,0.48,0.75,0.66c0.2,0.21,0.36,0.3,0.47,0.3c0.04,0,0.09,0,0.13-0.06c0.05-0.06,0.07-0.12,0.09-0.21
		c0.03-0.06,0.05-0.18,0.07-0.3c0-0.12,0.03-0.24,0.03-0.39s-0.03-0.26-0.03-0.38s-0.02-0.21-0.02-0.3l-0.07-0.18
		c-0.02-0.06-0.07-0.15-0.16-0.27c-0.09-0.12-0.24-0.3-0.51-0.54c-0.27-0.21-0.57-0.41-0.88-0.59c-0.32-0.18-0.68-0.3-1.04-0.42
		c-0.36-0.12-0.72-0.18-1.08-0.18c-0.73,0-1.4,0.12-1.99,0.36c-0.61,0.24-1.13,0.59-1.55,1.04c-0.43,0.45-0.77,0.99-1,1.61
		c-0.22,0.66-0.33,1.37-0.33,2.15c0,0.84,0.11,1.55,0.36,2.15c0.24,0.59,0.58,1.1,0.99,1.52c0.4,0.42,0.86,0.8,1.37,1.1
		c0.52,0.33,1.06,0.63,1.61,0.9c0.54,0.3,1.06,0.56,1.57,0.83c0.52,0.3,1,0.6,1.4,0.93c0.41,0.36,0.72,0.74,0.97,1.19
		c0.25,0.45,0.39,0.99,0.39,1.58c0,0.6-0.12,1.14-0.3,1.58c-0.18,0.48-0.45,0.87-0.76,1.17c-0.34,0.32-0.75,0.56-1.2,0.74
		c-0.45,0.18-0.97,0.24-1.51,0.24c-0.68,0-1.29-0.09-1.78-0.3c-0.52-0.18-0.95-0.42-1.31-0.65c-0.36-0.24-0.68-0.45-0.9-0.66
		c-0.23-0.18-0.41-0.3-0.52-0.3c-0.07,0-0.11,0.03-0.16,0.06c-0.04,0.03-0.09,0.09-0.13,0.15c-0.05,0.09-0.07,0.18-0.07,0.3
		c-0.02,0.12-0.02,0.3-0.02,0.48c0,0.26,0.02,0.47,0.06,0.65c0.05,0.18,0.12,0.36,0.21,0.48c0.09,0.12,0.27,0.3,0.54,0.48
		c0.25,0.18,0.56,0.38,0.94,0.56c0.37,0.18,0.79,0.36,1.29,0.48c0.47,0.12,0.99,0.18,1.56,0.18c0.79,0,1.53-0.12,2.21-0.39
		c0.67-0.27,1.24-0.65,1.73-1.16c0.5-0.51,0.88-1.13,1.15-1.85c0.27-0.72,0.41-1.55,0.41-2.48
		C200.17,259.32,200.03,258.63,199.79,258.04z"/>
	<path fill-rule="evenodd" clip-rule="evenodd" fill="#666666" d="M212.49,264.63c-0.03-0.12-0.05-0.21-0.09-0.3l-0.14-0.18
		c-0.05-0.03-0.11-0.06-0.16-0.06h-6.81v-7.64h6.83c0.05,0,0.12,0,0.16-0.06c0.05-0.02,0.09-0.08,0.14-0.14
		c0.02-0.06,0.04-0.18,0.07-0.3c0-0.12,0.02-0.24,0.02-0.39c0-0.18-0.02-0.33-0.02-0.45l-0.07-0.33l-0.14-0.17
		c-0.04-0.03-0.11-0.06-0.16-0.06h-6.83v-7.64h6.81c0.05,0,0.11,0,0.16-0.06c0.05-0.03,0.09-0.09,0.14-0.18
		c0.04-0.06,0.06-0.15,0.09-0.27c0-0.12,0.02-0.24,0.02-0.42c0-0.14-0.02-0.29-0.02-0.41c-0.03-0.12-0.05-0.24-0.09-0.33
		c-0.05-0.06-0.07-0.12-0.12-0.18c-0.04-0.03-0.11-0.06-0.16-0.06h-7.57c-0.16,0-0.32,0.09-0.48,0.24
		c-0.15,0.15-0.22,0.42-0.22,0.77v18.98c0,0.38,0.07,0.65,0.22,0.8c0.16,0.15,0.32,0.21,0.48,0.21h7.55c0.05,0,0.11,0,0.16-0.06
		c0.05-0.03,0.09-0.09,0.14-0.18c0.04-0.06,0.06-0.18,0.09-0.3c0-0.12,0.02-0.24,0.02-0.41
		C212.51,264.9,212.49,264.75,212.49,264.63z"/>
	<path fill-rule="evenodd" clip-rule="evenodd" fill="#666666" d="M232.84,245.57c-0.03-0.12-0.05-0.24-0.09-0.33l-0.14-0.18
		c-0.05-0.03-0.11-0.06-0.18-0.06H220.3c-0.09,0-0.16,0.03-0.21,0.06l-0.13,0.18c-0.05,0.09-0.07,0.21-0.07,0.33
		c-0.02,0.12-0.02,0.27-0.02,0.41c0,0.18,0,0.3,0.02,0.42c0,0.12,0.02,0.21,0.07,0.27c0.04,0.09,0.09,0.15,0.13,0.18
		c0.05,0.06,0.12,0.06,0.21,0.06h5.34v18.67c0,0.06,0,0.12,0.02,0.18c0.03,0.06,0.07,0.12,0.12,0.15c0.04,0.03,0.13,0.06,0.22,0.06
		c0.09,0.03,0.23,0.03,0.36,0.03c0.14,0,0.25,0,0.34-0.03c0.09,0,0.18-0.03,0.23-0.06c0.04-0.03,0.09-0.09,0.11-0.15
		c0.02-0.06,0.04-0.12,0.04-0.18v-18.67h5.35c0.04,0,0.11,0,0.18-0.06c0.04-0.03,0.09-0.09,0.14-0.18
		c0.04-0.06,0.06-0.15,0.09-0.27c0-0.12,0.02-0.24,0.02-0.42C232.86,245.84,232.84,245.69,232.84,245.57z"/>
	<path fill-rule="evenodd" clip-rule="evenodd" fill="#666666" d="M243.26,258.36h-6.2l3.09-11.45L243.26,258.36z M241.21,245.39
		c-0.05-0.06-0.07-0.12-0.12-0.18c-0.04-0.06-0.11-0.09-0.18-0.12c-0.09-0.03-0.18-0.06-0.29-0.06c-0.11,0-0.25-0.03-0.38-0.03
		c-0.16,0-0.3,0.03-0.41,0.03s-0.2,0.03-0.29,0.06c-0.09,0.03-0.14,0.06-0.18,0.12c-0.05,0.06-0.09,0.12-0.12,0.18l-5.52,19.86
		c-0.05,0.18-0.07,0.3-0.07,0.39c0,0.12,0.02,0.18,0.07,0.24c0.04,0.06,0.11,0.09,0.22,0.09c0.1,0.03,0.23,0.03,0.41,0.03
		c0.14,0,0.25,0,0.34-0.03c0.09,0,0.16-0.03,0.2-0.09c0.05-0.03,0.09-0.06,0.14-0.12l0.06-0.18l1.45-5.31h7.24l1.44,5.34
		c0,0.06,0.02,0.12,0.07,0.18c0.02,0.06,0.07,0.09,0.11,0.12c0.05,0.03,0.14,0.06,0.23,0.06c0.09,0.03,0.2,0.03,0.36,0.03
		c0.13,0,0.27,0,0.36-0.03c0.09,0,0.18-0.03,0.22-0.09c0.05-0.06,0.07-0.12,0.07-0.24c0-0.09,0-0.21-0.04-0.39L241.21,245.39z"/>
	<path fill-rule="evenodd" clip-rule="evenodd" fill="#666666" d="M257.24,262c-0.18,0.48-0.42,0.87-0.74,1.17
		c-0.32,0.29-0.7,0.53-1.1,0.68c-0.41,0.18-0.88,0.24-1.4,0.24h-3.68v-7.64h3.02c0.75,0,1.38,0.09,1.87,0.27
		c0.5,0.18,0.93,0.42,1.27,0.75c0.34,0.36,0.61,0.77,0.79,1.25s0.27,1.05,0.27,1.7C257.54,261.02,257.42,261.56,257.24,262z
		 M255.91,252.1c-0.11,0.48-0.29,0.89-0.51,1.25c-0.25,0.36-0.57,0.66-0.93,0.87c-0.36,0.24-0.83,0.33-1.42,0.33h-2.73v-7.64h2.48
		c0.66,0,1.2,0.09,1.6,0.27c0.41,0.18,0.72,0.44,0.97,0.74c0.25,0.33,0.43,0.72,0.54,1.17c0.12,0.47,0.18,0.98,0.18,1.52
		C256.09,251.14,256.03,251.62,255.91,252.1z M258.71,258.39c-0.18-0.59-0.43-1.1-0.74-1.55c-0.32-0.45-0.7-0.8-1.11-1.1
		c-0.43-0.3-0.88-0.48-1.35-0.6c0.34-0.21,0.63-0.48,0.88-0.8c0.25-0.33,0.45-0.69,0.63-1.11c0.18-0.38,0.29-0.8,0.38-1.28
		c0.09-0.48,0.14-0.95,0.14-1.49c0-0.84-0.09-1.58-0.27-2.27c-0.18-0.65-0.45-1.22-0.81-1.7c-0.37-0.48-0.84-0.83-1.4-1.1
		c-0.57-0.24-1.29-0.39-2.19-0.39h-3.32c-0.15,0-0.31,0.09-0.45,0.24c-0.15,0.15-0.22,0.42-0.22,0.77v18.98
		c0,0.38,0.07,0.65,0.22,0.8c0.16,0.15,0.32,0.21,0.48,0.21h4.19c0.59,0,1.08-0.06,1.53-0.18c0.46-0.12,0.86-0.27,1.25-0.51
		c0.36-0.2,0.69-0.47,1.01-0.8c0.29-0.33,0.54-0.72,0.77-1.14c0.2-0.41,0.36-0.89,0.47-1.4c0.11-0.5,0.18-1.07,0.18-1.7
		C258.98,259.62,258.89,258.99,258.71,258.39z"/>
	<path fill-rule="evenodd" clip-rule="evenodd" fill="#666666" d="M271.3,264.63c-0.02-0.12-0.05-0.21-0.09-0.3l-0.14-0.18
		c-0.07-0.03-0.13-0.06-0.18-0.06h-6.79v-18.67c0-0.06-0.02-0.12-0.04-0.18c-0.02-0.06-0.07-0.09-0.11-0.12
		c-0.05-0.03-0.14-0.06-0.23-0.09c-0.09,0-0.2-0.03-0.34-0.03c-0.13,0-0.27,0.03-0.36,0.03c-0.09,0.03-0.18,0.06-0.22,0.09
		c-0.05,0.03-0.09,0.06-0.12,0.12c-0.02,0.06-0.02,0.12-0.02,0.18v19.57c0,0.38,0.07,0.65,0.25,0.8c0.16,0.15,0.31,0.21,0.5,0.21
		h7.48c0.07,0,0.14,0,0.18-0.06c0.05-0.03,0.09-0.09,0.14-0.18c0.04-0.09,0.07-0.18,0.09-0.3c0-0.12,0.02-0.24,0.02-0.41
		C271.32,264.9,271.3,264.75,271.3,264.63z"/>
	<path fill-rule="evenodd" clip-rule="evenodd" fill="#666666" d="M282.19,264.63c-0.02-0.12-0.04-0.21-0.09-0.3l-0.13-0.18
		c-0.05-0.03-0.11-0.06-0.16-0.06H275v-7.64h6.83c0.05,0,0.12,0,0.16-0.06c0.05-0.02,0.09-0.08,0.14-0.14
		c0.02-0.06,0.04-0.18,0.06-0.3c0-0.12,0.03-0.24,0.03-0.39c0-0.18-0.03-0.33-0.03-0.45l-0.06-0.33l-0.14-0.17
		c-0.04-0.03-0.11-0.06-0.16-0.06H275v-7.64h6.81c0.05,0,0.11,0,0.16-0.06c0.04-0.03,0.09-0.09,0.13-0.18
		c0.05-0.06,0.07-0.15,0.09-0.27c0-0.12,0.03-0.24,0.03-0.42c0-0.14-0.03-0.29-0.03-0.41c-0.02-0.12-0.04-0.24-0.09-0.33
		c-0.04-0.06-0.06-0.12-0.11-0.18c-0.04-0.03-0.11-0.06-0.16-0.06h-7.57c-0.16,0-0.32,0.09-0.48,0.24
		c-0.15,0.15-0.22,0.42-0.22,0.77v18.98c0,0.38,0.07,0.65,0.22,0.8c0.16,0.15,0.32,0.21,0.48,0.21h7.55c0.05,0,0.11,0,0.16-0.06
		c0.04-0.03,0.09-0.09,0.13-0.18c0.05-0.06,0.07-0.18,0.09-0.3c0-0.12,0.03-0.24,0.03-0.41
		C282.22,264.9,282.19,264.75,282.19,264.63z"/>
	<path fill-rule="evenodd" clip-rule="evenodd" fill="#666666" d="M295.62,258.04c-0.25-0.57-0.57-1.08-0.97-1.53
		c-0.41-0.41-0.88-0.8-1.4-1.13c-0.52-0.3-1.04-0.6-1.58-0.89c-0.54-0.27-1.08-0.54-1.6-0.84c-0.52-0.27-0.97-0.57-1.38-0.92
		c-0.4-0.33-0.74-0.72-0.99-1.17c-0.25-0.44-0.36-0.98-0.36-1.64c0-0.42,0.05-0.8,0.18-1.16c0.14-0.36,0.32-0.69,0.59-0.96
		c0.27-0.26,0.58-0.47,0.99-0.65c0.38-0.15,0.86-0.24,1.4-0.24s1.01,0.12,1.44,0.3c0.41,0.21,0.77,0.41,1.08,0.65
		c0.3,0.24,0.54,0.48,0.75,0.66c0.2,0.21,0.36,0.3,0.47,0.3c0.05,0,0.09,0,0.14-0.06c0.04-0.06,0.06-0.12,0.09-0.21
		c0.021-0.06,0.04-0.18,0.06-0.3c0-0.12,0.03-0.24,0.03-0.39s-0.03-0.26-0.03-0.38s-0.02-0.21-0.02-0.3l-0.07-0.18
		c-0.02-0.06-0.06-0.15-0.15-0.27s-0.25-0.3-0.52-0.54c-0.27-0.21-0.57-0.41-0.88-0.59c-0.32-0.18-0.68-0.3-1.04-0.42
		c-0.36-0.12-0.72-0.18-1.08-0.18c-0.72,0-1.4,0.12-1.99,0.36c-0.61,0.24-1.12,0.59-1.55,1.04c-0.43,0.45-0.77,0.99-0.99,1.61
		c-0.23,0.66-0.34,1.37-0.34,2.15c0,0.84,0.11,1.55,0.36,2.15c0.25,0.59,0.58,1.1,0.99,1.52s0.86,0.8,1.38,1.1
		c0.51,0.33,1.06,0.63,1.6,0.9c0.54,0.3,1.06,0.56,1.58,0.83c0.51,0.3,0.99,0.6,1.39,0.93c0.41,0.36,0.73,0.74,0.97,1.19
		c0.25,0.45,0.39,0.99,0.39,1.58c0,0.6-0.12,1.14-0.3,1.58c-0.18,0.48-0.45,0.87-0.76,1.17c-0.34,0.32-0.75,0.56-1.2,0.74
		c-0.45,0.18-0.97,0.24-1.51,0.24c-0.68,0-1.28-0.09-1.78-0.3c-0.52-0.18-0.95-0.42-1.31-0.65c-0.36-0.24-0.68-0.45-0.9-0.66
		c-0.23-0.18-0.41-0.3-0.52-0.3c-0.07,0-0.11,0.03-0.16,0.06c-0.04,0.03-0.09,0.09-0.13,0.15c-0.05,0.09-0.07,0.18-0.07,0.3
		c-0.02,0.12-0.02,0.3-0.02,0.48c0,0.26,0.02,0.47,0.06,0.65c0.05,0.18,0.12,0.36,0.21,0.48c0.09,0.12,0.27,0.3,0.54,0.48
		c0.25,0.18,0.56,0.38,0.95,0.56c0.36,0.18,0.79,0.36,1.28,0.48c0.48,0.12,0.99,0.18,1.56,0.18c0.79,0,1.53-0.12,2.21-0.39
		c0.67-0.27,1.24-0.65,1.73-1.16c0.5-0.51,0.88-1.13,1.15-1.85c0.27-0.72,0.41-1.55,0.41-2.48
		C296,259.32,295.86,258.63,295.62,258.04z"/>
</g>
<g id="brand-icon">
	<path id="c-mark" fill-rule="evenodd" clip-rule="evenodd" fill="#27AE60" d="M223.52,96.14c8.25,32.74-6.04,65.4-35.79,81.93
		c-29.63,16.45-65.11,11.62-89.1-12.02c-23.92-23.56-28.92-58.4-12.6-87.61c16.37-29.28,49.02-43.7,82.07-36.14l6.78-28.18
		C128.85,3.67,83.46,23.84,60.74,64.58C38.1,105.19,45.03,153.61,78.22,186.4c33.35,32.94,82.73,39.78,124.04,16.93
		c41.56-22.98,61.54-68.55,49.99-114.23L223.52,96.14z"/>
	<path id="dbt-mark" fill-rule="evenodd" clip-rule="evenodd" fill="#666666" d="M122.02,82.39l60.93,60.16l17.83,17.61
		c22.87-23.91,24.66-60.27,5.36-86.12l10.52-10.39l23.13,22.65l15.46-15.21l-23.17-22.64l17.27-17.04L233.9,16.35l-17.23,17.04
		l-23.05-22.53l-15.33,15.21l23,22.52l-10.57,10.46c-26.16-18.41-62.45-16.35-86.34,5.93L122.02,82.39z M142.99,72.09
		c9.98-1.85,20.5-0.21,29.54,4.94l-12.25,12.1L142.99,72.09z M187.96,91.97c5.52,9.05,7.33,19.69,5.44,29.78l-17.83-17.56
		L187.96,91.97z M179.32,146.07l-60.85-60.11l-17.64-17.42c-24.43,26.37-23.79,67.31,1.95,92.9c25.82,25.67,67.49,26.53,94.37,2.25
		L179.32,146.07z M157.96,156.01c-13.28,2.14-27.36-1.86-37.56-11.98c-10.18-10.1-14.17-24-11.98-37.07L157.96,156.01z"/>
</g>
</svg>
